<svg height="511pt" viewBox="-21 0 511 511.56698" width="511pt" xmlns="http://www.w3.org/2000/svg"><path d="m312.347656 497.722656h-.214844c-5.886718 0-10.664062-4.78125-10.664062-10.667968 0-5.886719 4.777344-10.667969 10.664062-10.667969 5.890626 0 10.796876 4.78125 10.796876 10.667969 0 5.886718-4.671876 10.667968-10.582032 10.667968zm0 0"/><path d="m215.921875 306.019531c-7.636719-18.046875-14.871094-36.09375-21.867187-53.929687-2.046876-5.140625-7.746094-7.746094-12.992188-5.824219-5.183594 1.898437-7.894531 7.617187-6.101562 12.863281 17.984374 52.480469 14.121093 177.921875-1.855469 233.214844-.789063 2.691406-.425781 5.589844 1.003906 7.980469 1.386719 2.410156 3.753906 4.140625 6.484375 4.777343 18.472656 4.289063 36.628906 6.464844 53.910156 6.464844 2.023438 0 3.988282-.128906 5.929688-.234375 4.289062-.253906 9.023437-.511719 12.03125-3.648437 1.921875-1.984375 2.945312-4.992188 2.835937-7.765625-.789062-21.695313-5.886719-99.691407-39.378906-193.898438zm0 0" fill="#90a4ae"/><path d="m206.535156 309.988281c-7.679687-18.132812-14.933594-36.265625-21.972656-54.1875-.640625-1.707031-1.28125-3.414062-1.921875-4.90625.214844.640625.425781 1.28125.855469 1.707031 8.957031 19.625 16.636718 38.828126 23.039062 57.386719zm0 0" fill="#fafafa"/><path d="m206.535156 320.1875c-3.992187 0-7.722656-2.328125-9.367187-6.210938-7.722657-18.21875-14.996094-36.4375-22.078125-54.441406l-1.835938-4.695312h.023438c-.128906-.277344-.238282-.53125-.300782-.746094-1.707031-5.203125 1.003907-10.816406 6.101563-12.734375 5.289063-1.898437 10.835937.574219 12.949219 5.589844l.085937.253906c.253907.386719.449219.769531.640625 1.175781 8.894532 19.496094 16.746094 39.101563 23.402344 58.28125 1.792969 5.183594-.855469 10.878906-5.972656 12.84375-1.175782.445313-2.433594.683594-3.648438.683594zm0 0"/><path d="m315.78125 482.085938c-32.019531-36.972657-65.621094-96.234376-99.882812-176.128907-2.175782-5.015625-7.957032-7.488281-13.054688-5.460937-5.121094 2.003906-7.722656 7.699218-5.867188 12.882812 32.320313 90.882813 37.25 166.273438 38.015626 187.96875.234374 5.441406 4.714843 9.75 10.175781 9.75 32.34375 0 57.515625-9.066406 66.859375-12.949218 3.03125-1.257813 5.25-3.902344 5.996094-7.0625.722656-3.175782-.109376-6.527344-2.242188-9zm0 0" fill="#b0bec5"/><path d="m308.082031 498.9375c-4.375 0-8.429687-2.835938-9.75-7.230469-1.621093-5.378906 1.40625-11.074219 6.785157-12.714843 1.703124-1.195313 4.90625-2.15625 6.996093-2.15625 5.632813 0 10.28125 4.566406 10.28125 10.199218 0 4.285156-2.601562 7.976563-6.335937 9.46875-1.386719.707032-3.070313 1.367188-5.035156 1.984375-.957032.320313-1.960938.449219-2.941407.449219zm0 0"/><path d="m361.949219 50.019531c-.984375-3.007812-3.222657-5.398437-6.167969-6.570312l-106.664062-42.667969c-3.09375-1.257812-6.613282-.9375-9.453126.769531-2.878906 1.726563-4.757812 4.695313-5.097656 8.023438 0 0-1.75 16.445312-3.03125 43.730469-4.542968 101.804687-1.320312 294.144531 71.0625 438.335937 1.878906 3.734375 5.652344 5.867187 9.535156 5.867187 1.558594 0 3.136719-.339843 4.652344-1.066406 5.246094-2.539062 7.488282-8.832031 5.011719-14.121094-94.675781-202.730468 37.761719-421.183593 39.082031-423.363281 1.664063-2.6875 2.050782-5.949219 1.070313-8.9375zm0 0" fill="#b0bec5"/><path d="m321.671875 482.042969c-72.855469-145.109375-72.429687-347.519531-68.867187-427.777344 1.261718-26.347656 2.925781-42.304687 2.945312-42.476563.382812-3.601562-1.109375-7.144531-3.925781-9.425781-2.859375-2.261719-6.632813-2.988281-10.070313-1.792969l-128 42.664063c-5.375 1.792969-8.425781 7.511719-6.867187 12.972656 0 0 2.984375 10.710938 8.171875 28.585938 18.429687 61.269531 37.84375 118.441406 57.46875 169.453125.214844.617187.511718 1.597656 1.089844 2.6875.0625.148437.105468.296875.148437.425781.042969.0625.855469 2.28125.875 2.347656 7.082031 17.984375 14.378906 36.242188 22.101563 54.484375 35.113281 81.875 69.84375 142.953125 103.296874 181.546875 2.070313 2.367188 5.011719 3.691407 8.0625 3.691407 1.046876 0 2.089844-.152344 3.117188-.449219 3.007812-.917969 5.308594-1.960938 7.058594-3.179688 2.839844-1.984375 4.542968-5.246093 4.542968-8.722656v-.214844c-.019531-1.6875-.425781-3.308593-1.148437-4.820312zm0 0" fill="#cfd8dc"/><path d="m312.347656 497.765625c-4.011718 0-7.851562-2.261719-9.664062-6.144531-87.464844-186.730469 7.703125-384.726563 33.835937-432.855469l-95.339843-38.144531c-5.484376-2.195313-8.128907-8.402344-5.929688-13.84375 2.195312-5.441406 8.425781-8.128906 13.84375-5.929688l106.667969 42.664063c2.941406 1.175781 5.183593 3.566406 6.164062 6.574219 1.003907 2.984374.597657 6.269531-1.066406 8.9375-1.324219 2.195312-133.84375 220.757812-38.847656 423.574218 2.496093 5.332032.191406 11.6875-5.140625 14.183594-1.453125.664062-2.988282.984375-4.523438.984375zm0 0"/><path d="m234.480469 511.566406c-17.558594 0-35.667969-2.195312-53.84375-6.484375-2.730469-.640625-5.058594-2.367187-6.464844-4.800781-1.410156-2.390625-1.769531-5.269531-.980469-7.957031 16.746094-57.855469 19.882813-188.414063.019532-237.71875-2.070313-5.117188.320312-10.964844 5.375-13.140625 5.078124-2.238282 10.945312.023437 13.292968 5.015625 60.90625 130.453125 63.359375 249.191406 63.445313 254.183593.085937 5.503907-4.226563 10.070313-9.707031 10.304688l-3.5625.234375c-2.519532.191406-5.015626.363281-7.574219.363281zm-38.976563-24.128906c13.183594 2.496094 26.261719 3.757812 38.976563 3.757812h.0625c-1.277344-22.082031-6.460938-78.808593-27.667969-148.523437 1.707031 50.941406-2.582031 107.328125-11.371094 144.765625zm0 0"/><path d="m308.613281 498.917969c-3.285156 0-6.699219-.984375-8.574219-3.136719-85.695312-98.859375-157.929687-320.34375-185.023437-410.964844-5.164063-17.878906-8.128906-28.566406-8.128906-28.566406-1.558594-5.460938 1.492187-11.179688 6.890625-12.992188l128-42.667968c3.476562-1.109375 7.210937-.445313 10.070312 1.816406 2.816406 2.257812 4.285156 5.800781 3.925782 9.425781-.023438.171875-1.6875 16.109375-2.945313 42.453125-3.5625 80.34375-4.011719 282.925782 69.054687 427.992188 1.300782 2.539062 1.492188 5.503906.578126 8.210937-.917969 2.710938-2.882813 4.929688-5.460938 6.1875-1.046875.492188-2.199219.9375-3.371094 1.367188-1.453125.574219-3.222656.875-5.015625.875zm-178.429687-438.636719c1.34375 4.714844 3.132812 10.964844 5.3125 18.519531 21.949218 73.511719 74.046875 234.535157 138.132812 342.484375-44.226562-131.519531-45.933594-281.984375-42.113281-367.957031.492187-11.007813 1.109375-20.246094 1.621094-27.351563zm0 0"/><path d="m354.886719 476.238281c-3.351563 0-6.636719-1.664062-8.578125-4.714843-3.027344-4.734376-1.640625-11.027344 3.117187-14.058594 61.910157-39.59375 98.898438-106.921875 98.898438-180.074219 0-59.539063-25.34375-116.925781-69.523438-157.480469-4.136719-3.800781-4.4375-10.21875-.617187-14.378906 3.773437-4.140625 10.261718-4.417969 14.378906-.621094 48.402344 44.375 76.136719 107.242188 76.136719 172.480469 0 80.148437-40.492188 153.878906-108.308594 197.25-1.726563 1.085937-3.628906 1.597656-5.503906 1.597656zm0 0"/><path d="m135.429688 488.25c-1.515626 0-3.070313-.339844-4.523438-1.066406-80.554688-39.851563-130.621094-120.257813-130.621094-209.8125 0-67.394532 29.269532-131.648438 80.277344-176.234375 4.242188-3.691407 10.664062-3.246094 14.378906.957031 3.710938 4.246094 3.261719 10.667969-.960937 14.378906-46.613281 40.726563-73.324219 99.371094-73.324219 160.898438 0 81.769531 45.71875 155.15625 119.296875 191.550781 5.035156 2.496094 7.105469 8.597656 4.609375 13.652344-1.773438 3.605469-5.378906 5.675781-9.132812 5.675781zm0 0"/><path d="m245.125 511.035156c-5.628906 0-10.195312-4.566406-10.195312-10.199218 0-5.632813 4.566406-10.195313 10.195312-10.195313 35.394531 0 62.613281-12.652344 62.871094-12.78125 5.011718-2.347656 11.136718-.210937 13.546875 4.863281 2.410156 5.058594.277343 11.117188-4.820313 13.546875-1.261718.621094-31.40625 14.765625-71.597656 14.765625zm0 0"/></svg>